# xmcd
#
# Track frame offsets:
#	150
#	17349
#	36424
#	53176
#	75966
#	94965
#	118643
#	137985
#
# Disc length: 2070 seconds
#
# Revision: 0
# Processed by: cddbd v1.5.1PL0 Copyright (c) Steve Scherf et al.
# Submitted via: audiograbber 1.83.01
#
DISCID=60081408
DTITLE=Love is Chemicals - Love is Chemicals
DYEAR=2005
DGENRE=Indie Rock
TTITLE0=Claw Your Sweater
TTITLE1=Everyone Is In On It
TTITLE2=Aquamarine
TTITLE3=Misery Card
TTITLE4=Friends and Neighbors
TTITLE5=The Hex
TTITLE6=A Portrait of Your Post-Apocalyptic Son
TTITLE7=Furthest Star
EXTD=
EXTT0=
EXTT1=
EXTT2=
EXTT3=
EXTT4=
EXTT5=
EXTT6=
EXTT7=
PLAYORDER=
